<svg id="Capa_1" enable-background="new 0 0 512 512" height="512" viewBox="0 0 512 512" width="512" xmlns="http://www.w3.org/2000/svg"><g><g><path d="m378.707 0c-47.242 0-87.582 29.544-103.541 71.16 1.381-1.086 2.775-2.345 4.187-3.792 13.245 36.419 15.288 68.428 6.135 103.444 19.732 30.58 54.11 50.827 93.219 50.827 61.221 0 110.851-49.616 110.851-110.819s-49.629-110.82-110.851-110.82z" fill="#e2c4ff"/></g><g fill="#020288"><path d="m392.85 110.819 18.512-18.512c3.905-3.905 3.905-10.237 0-14.143-3.906-3.904-10.236-3.904-14.143 0l-18.512 18.512-18.512-18.512c-3.906-3.904-10.236-3.904-14.143 0-3.905 3.905-3.905 10.237 0 14.143l18.512 18.512-18.512 18.512c-3.905 3.905-3.905 10.237 0 14.143 1.953 1.952 4.512 2.929 7.071 2.929s5.118-.977 7.071-2.929l18.512-18.512 18.512 18.512c1.953 1.952 4.512 2.929 7.071 2.929s5.118-.977 7.071-2.929c3.905-3.905 3.905-10.237 0-14.143z"/><path d="m139.307 214.67c0-5.523-4.478-10-10-10h-5.54c-5.522 0-10 4.477-10 10 0 3.92 2.256 7.313 5.54 8.953v6.713c0 5.523 4.478 10 10 10s10-4.477 10-10z"/><path d="m218.374 240.336c5.522 0 10-4.477 10-10v-6.713c3.283-1.639 5.539-5.033 5.539-8.952 0-5.523-4.478-10-10-10h-5.539c-5.522 0-10 4.477-10 10v15.666c0 5.522 4.478 9.999 10 9.999z"/><path d="m191.614 293.567c1.953 1.956 4.515 2.934 7.076 2.934 2.557 0 5.114-.975 7.066-2.924 3.907-3.903 3.912-10.234.01-14.143-8.527-8.539-19.866-13.241-31.927-13.241s-23.399 4.703-31.927 13.241c-3.902 3.908-3.897 10.24.01 14.143 3.908 3.902 10.24 3.898 14.143-.01 4.748-4.755 11.061-7.374 17.774-7.374s13.027 2.619 17.775 7.374z"/><path d="m258.263 364.852h-34.104c-3.986 0-11.406 0-14.972-1.564-1.052-.461-1.882-.825-1.882-4.386v-14.62c30.052-1.773 50.813-11.827 63.298-30.588 10.518-15.808 13.357-35.758 13.988-54.549 12.991-2.157 24.227-13.631 25.664-26.75.949-8.664-1.822-17.333-7.605-23.784-4.236-4.726-9.816-7.977-15.901-9.379l1.86-5.082c16.697-45.623 16.739-84.561.142-130.2-1.175-3.232-3.929-5.633-7.29-6.358-3.36-.724-6.86.329-9.263 2.79-10.145 10.392-15.969 8.178-38.65-6.707-7.93-5.204-16.917-11.102-27.468-16.323-21.302-10.542-39.703-13.175-54.691-7.825-11.955 4.268-21.504 13.65-27.615 27.135-4.693 10.355-15.369 16.601-26.543 15.542-.547-.052-1.087-.059-1.623-.021-28.668-3.888-40.589 11.947-45.167 21.888-7.378 16.019-7.595 40.366-.644 72.366 2.622 12.073 5.771 22.839 7.952 29.746.414 1.311.794 2.509 1.146 3.606-11.394 3.546-20.204 13.8-21.484 25.912-.913 8.642 1.879 17.282 7.66 23.705 4.72 5.244 11.097 8.663 17.979 9.744.488 18.301 2.829 37.811 12.995 53.752 12.304 19.294 33.404 29.61 64.329 31.387v14.612c0 3.561-.83 3.925-1.882 4.386-3.566 1.564-10.986 1.564-14.973 1.564h-34.101c-36.931 0-66.977 30.081-66.977 67.055v70.094c0 5.523 4.478 10 10 10h282.798c5.522 0 10-4.477 10-10v-70.094c0-36.974-30.046-67.054-66.976-67.054zm-186.908-266.951c1.649-2.061 6.669-8.335 22.978-5.689 1.017.165 2.028.177 3.01.049 18.914.97 36.71-9.826 44.648-27.343 3.874-8.549 9.299-14.119 16.122-16.555 9.687-3.457 22.841-1.131 39.097 6.914 9.463 4.684 17.912 10.228 25.366 15.12 16.578 10.879 33.617 22.062 51.611 13.221 7.4 25.14 8.827 48.388 4.279 72.785-.764-.187-1.561-.286-2.382-.286-26.932 0-52.236-10.5-71.255-29.567l-13.611-13.646c-3.721-3.729-9.698-3.933-13.664-.465l-21.474 18.785c-18.351 16.052-41.884 24.893-66.265 24.893h-18.217c-1.189 0-2.33.208-3.388.589-.063-.323-.125-.646-.187-.971-5.33-27.957-4.146-48.496 3.332-57.834zm233.884 394.099h-262.797v-60.093c0-25.946 21.073-47.055 46.977-47.055h34.103c7.893 0 16.171-.251 23.005-3.248 6.318-2.771 13.85-8.958 13.85-22.703v-24.334c0-5.523-4.478-10-10-10-62.478 0-67.443-32.811-67.443-75.704 0-3.094-1.432-6.013-3.878-7.907-2.447-1.895-5.634-2.547-8.627-1.774-.86.223-1.755.335-2.657.335-3.024 0-5.807-1.24-7.833-3.491-2.022-2.248-2.959-5.169-2.637-8.225.49-4.639 4.843-8.9 9.504-9.306.998-.086 1.984-.039 2.94.141 2.923.55 5.943-.228 8.235-2.128s3.618-4.722 3.618-7.699v-32.694h8.217c29.227 0 57.436-10.597 79.433-29.84l14.424-12.618 6.997 7.015c20.428 20.48 46.904 32.715 75.415 35.037v33.1c0 2.977 1.326 5.799 3.618 7.698 2.291 1.9 5.308 2.681 8.235 2.128.645-.122 1.309-.183 1.974-.183 3.033 0 5.82 1.246 7.848 3.507 2.023 2.257 2.953 5.189 2.617 8.255-.482 4.397-5.312 8.993-9.751 9.278-1.151.074-2.284-.031-3.37-.312-2.993-.773-6.179-.121-8.627 1.774-2.446 1.894-3.878 4.813-3.878 7.907 0 49.098-10.748 75.704-67.443 75.704-5.522 0-10 4.477-10 10v24.334c0 13.744 7.531 19.932 13.85 22.703 6.834 2.997 15.111 3.248 23.004 3.248h34.104c25.903 0 46.977 21.109 46.977 47.055v60.095z"/><path d="m221.133 401.943c-4.981-2.386-10.954-.282-13.339 4.699-6.226 12.996-19.554 21.394-33.954 21.394s-27.728-8.398-33.954-21.395c-2.387-4.981-8.359-7.085-13.339-4.698-4.981 2.386-7.084 8.358-4.698 13.339 9.532 19.897 29.939 32.754 51.991 32.754 22.053 0 42.46-12.857 51.991-32.754 2.386-4.981.282-10.953-4.698-13.339z"/></g></g></svg>