<?xml version="1.0" encoding="utf-8"?>
<!-- Generator: Adobe Illustrator 24.0.2, SVG Export Plug-In . SVG Version: 6.00 Build 0)  -->
<svg version="1.1" id="Layer_1" xmlns="http://www.w3.org/2000/svg" xmlns:xlink="http://www.w3.org/1999/xlink" x="0px" y="0px"
	 viewBox="0 0 334.4 265" style="enable-background:new 0 0 334.4 265;" xml:space="preserve">
<style type="text/css">
	.st0{fill:#FFFFFF;}
</style>
<g>
	<path class="st0" d="M97.9,171c1.3,1.1,1.4,2.3,0.4,3.5c0,0.2-0.1,0.2-0.2,0.2c-1.9,1.9-6.3,5.8-13.3,11.7
		c-1.9,1.7-6.4,5.4-13.6,11c-10.1,7.8-20.1,14.3-29.7,19.4c-3.1,1.6-6.1,2.7-8.9,3.3c-1.7,0.5-3.5,0.6-5.4,0.5c-2,0-4-0.4-5.9-1.2
		c-2.3-0.8-4.1-2.3-5.4-4.7c-1.1-1.9-1.7-4-1.9-6.3c-0.2-3.1,0.4-6.6,1.6-10.3c1.6-5,4.1-10.6,7.7-16.9c1.9-3.1,5-8,9.4-14.7
		c0.8-1.2,1.8-2,3.2-2.2c1.3-0.2,2.6,0,3.9,0.8c1.1,0.6,1.8,1.6,2.1,2.9c0.3,1.3,0.2,2.5-0.5,3.6c-1.1,2-2.7,4.8-4.7,8.2
		c-2,3.4-3.4,5.7-4,6.8c-3.3,6.1-5.6,11-7,14.7c-0.9,2.5-1.4,4.7-1.4,6.6c0,0.9,0.1,1.6,0.2,2c0.2,0.4,0.5,0.7,0.9,1.1
		c2.7,1.7,7.2,1.6,13.6-0.5c4.5-1.4,9.6-3.7,15.2-7c4.2-2.7,9-5.9,14.3-9.6c3.4-2.5,7.9-6.1,13.3-10.8c1.9-1.6,4.1-3.4,6.6-5.6
		c2.8-2.8,4.7-4.8,5.6-6.1l0.2-0.2C95.4,170,96.6,169.9,97.9,171z M49.8,157c-0.9,1.9-2.3,1.6-4-0.9c-1.3-2-1.7-4.2-1.4-6.6
		c0.8-3.6,3.5-7.9,8.2-12.9c0.5-0.5,1.2-0.2,2.1,0.7c0.9,0.9,1.7,2.1,2.3,3.6c0.6,1.5,0.7,2.7,0.2,3.6c-0.3,1.3-1.5,3.4-3.6,6.4
		C51.6,154,50.3,156,49.8,157z"/>
	<path class="st0" d="M202.7,10.4c3.1,0.5,5.3,1.8,6.7,4c1.3,2.2,1.9,4.4,1.8,6.6c0,2.7-0.7,5.8-2.1,9.4c-0.3,0.8-1.6,3.3-3.7,7.5
		c-5,9.8-10.5,19.2-16.4,28.1c-9.4,13.9-22.3,31-38.9,51.3c-5.1,6.4-12.1,14.6-20.8,24.6c-9.1,10.1-16.5,17.9-22.5,23.2
		c-2.5,6.7-4.4,12.7-5.6,18c-1.3,5.6-1.7,10.4-1.4,14.3c0.3,4.7,1.9,8.2,4.7,10.5c1.4,1.1,3.1,1.9,5.1,2.6c2,0.6,4.4,0.9,7,0.9
		c3.9,0,8.8-1.3,14.7-3.7c9.4-4.2,18.3-9.7,26.9-16.4c8.4-6.6,16.2-13.7,23.2-21.5c1.1-1.4,2.3-1.5,3.5-0.4c1.2,1.2,1.3,2.4,0.2,3.6
		l-0.2,0.2c-19,18.4-36.3,31.4-51.7,38.9c-5,2.3-10.2,4.2-15.7,5.6c-3.3,0.9-6.3,1.3-9.1,1.2c-3.7-0.2-7-1.2-9.8-3
		c-2.8-1.9-5-4.5-6.6-8c-1.4-3-2.3-6.2-2.6-9.6c-0.5-5-0.1-10.8,1.2-17.6c2-8.9,5.6-19.3,10.8-31.4c4.1-8.9,9-18.6,14.7-29
		c10.3-18.4,21.7-36.8,34.2-55c6.9-9.8,13.3-18.5,19.2-26c4.2-5.3,7.7-9.5,10.5-12.6c4.8-5,8.9-8.8,12.2-11.5c1.4-1.1,2.7-2,4-2.8
		c0.8-0.5,1.6-0.9,2.6-1.2C200.3,10.5,201.6,10.3,202.7,10.4z M202.2,28.2c0.5-2.8,0.5-5,0.2-6.6c0-0.5-0.1-0.9-0.2-1.2
		c-0.2,0.2-0.5,0.3-0.9,0.5c-0.8,0.5-1.6,1.2-2.6,2.1c-3,2.5-6.6,6.1-10.8,10.8c-4.1,4.7-7.4,8.7-10.1,11.9
		c-6.4,8.1-12.7,16.6-19,25.5c-13.1,18.3-24.3,36.2-33.7,53.8c-5.5,10.3-10.1,19.8-14,28.6l-0.2,0.7c3.7-3.6,8.7-8.7,15-15.4
		c5.5-5.9,12.5-14,21.1-24.1c14.2-17.3,26.8-34.5,37.9-51.5c3.1-4.8,5.9-9.4,8.4-13.6c3.3-5.9,5.5-10.7,6.8-14.3
		C201.1,33.5,201.8,31,202.2,28.2z M201.5,20.3V20l0.2,0.2H201.5z"/>
	<path class="st0" d="M247.3,171c1.3,1.1,1.4,2.3,0.4,3.5c0,0.2-0.1,0.2-0.2,0.2c-1.9,1.9-6.3,5.8-13.3,11.7
		c-1.9,1.7-6.4,5.4-13.6,11c-10.1,7.8-20.1,14.3-29.7,19.4c-3.1,1.6-6.1,2.7-8.9,3.3c-1.7,0.5-3.5,0.6-5.4,0.5c-2,0-4-0.4-5.9-1.2
		c-2.3-0.8-4.1-2.3-5.4-4.7c-1.1-1.9-1.7-4-1.9-6.3c-0.2-3.1,0.4-6.6,1.6-10.3c1.6-5,4.1-10.6,7.7-16.9c1.9-3.1,5-8,9.4-14.7
		c0.8-1.2,1.8-2,3.2-2.2c1.3-0.2,2.6,0,3.9,0.8c1.1,0.6,1.8,1.6,2.1,2.9c0.3,1.3,0.2,2.5-0.5,3.6c-1.1,2-2.7,4.8-4.7,8.2
		c-2,3.4-3.4,5.7-4,6.8c-3.3,6.1-5.6,11-7,14.7c-0.9,2.5-1.4,4.7-1.4,6.6c0,0.9,0.1,1.6,0.2,2c0.2,0.4,0.5,0.7,0.9,1.1
		c2.7,1.7,7.2,1.6,13.6-0.5c4.5-1.4,9.6-3.7,15.2-7c4.2-2.7,9-5.9,14.3-9.6c3.4-2.5,7.9-6.1,13.3-10.8c1.9-1.6,4.1-3.4,6.6-5.6
		c2.8-2.8,4.7-4.8,5.6-6.1l0.2-0.2C244.7,170,246,169.9,247.3,171z M199.2,157c-0.9,1.9-2.3,1.6-4-0.9c-1.3-2-1.7-4.2-1.4-6.6
		c0.8-3.6,3.5-7.9,8.2-12.9c0.5-0.5,1.2-0.2,2.1,0.7c0.9,0.9,1.7,2.1,2.3,3.6c0.6,1.5,0.7,2.7,0.2,3.6c-0.3,1.3-1.5,3.4-3.6,6.4
		C200.9,154,199.6,156,199.2,157z"/>
	<path class="st0" d="M326.9,171.1c1.3,1,1.4,2.1,0.4,3.4v0.2c-7.3,8.4-18.3,15.6-32.8,21.5c-6.2,2.5-17.3,6.1-33.2,10.8
		c0.8,3.7,1.1,7.3,0.9,10.8c-0.6,8-3,14.9-7.3,20.8c-2.3,3.3-5.1,5.9-8.4,8c-3.3,2-7,3.4-11.2,4c-0.6,0.2-1.6,0.2-2.8,0.2
		c-1.7,0-2.7,0-3,0c-2.2-0.2-4.3-0.7-6.3-1.6c-4.2-1.9-7.3-4.8-9.4-8.7c-0.9-2.2-1.5-4.3-1.6-6.3c0-2.7,0.3-4.8,0.9-6.3
		c1.1-3.6,3.4-6.7,6.8-9.4c2.2-1.7,5.1-3.5,8.7-5.4c2.5-1.3,5.6-2.5,9.4-3.7c3-1.1,6.8-2.3,11.5-3.5c-0.5-2-0.9-3.8-1.4-5.4
		c-0.5-1.1-1.1-3-2-5.6c-0.9-2.7-1.6-5-2.2-7.1c-0.6-2.1-1.2-4.2-1.9-6.2c-1.7-7.3-2-14.4-0.9-21.1c1.4-8.9,5.3-15.4,11.7-19.7
		c4.1-2.5,8.2-3.5,12.4-3c2.2,0.3,4.3,1,6.3,2.1c1.9,1.1,3.5,2.7,4.9,4.9c2,3.4,2.6,7.4,1.6,11.9c-0.8,3.9-2.4,7.3-4.9,10.1
		c-1.1,1.3-2.3,1.3-3.5,0.2c-0.9-0.9-1.2-1.9-0.7-3v-0.2c1.4-2.8,2.1-5.4,2.1-7.7c0-2.8-0.6-5-1.9-6.6c-1.3-1.4-2.9-2.1-4.9-2.1
		c-2,0-4,0.6-5.9,1.9c-3.9,2.7-6.2,6.9-6.8,12.9c-0.8,5.1-0.4,10.8,1.2,16.9c0.3,1.2,2.3,7.3,5.9,18c0.6,1.6,1.2,3.5,1.9,5.9
		c13.7-3.6,24.6-7,32.5-10.3c13.6-5.5,23.7-12.5,30.4-21.1C324.3,170.2,325.5,170.1,326.9,171.1z M233.8,240.1
		c4.8-0.6,8.8-3.2,11.9-7.6c3.1-4.4,4.8-9.6,5.1-15.3c0-2-0.2-4.4-0.7-7c-4.4,1.4-8,2.7-10.8,3.7c-3.6,1.2-6.5,2.5-8.7,3.7
		c-3,1.6-5.3,3.3-7,5.2c-1.7,2-2.7,4.3-2.9,6.9s0.3,4.6,1.5,6.2c1.3,1.7,2.9,3,4.9,4c0.9,0.3,1.9,0.5,2.8,0.7l1.9-0.2
		C232.7,240.3,233.4,240.2,233.8,240.1z"/>
</g>
<g>
	<path class="st0" d="M21.7,236.1v4.7c-0.9,0.6-2.4,0.9-3.6,0.9c-3.2,0-5.1-2.3-5.1-5c0-2.8,2-5,4.9-5c1.7,0,2.8,0.5,3.5,1.2l-0.9,1
		c-0.8-0.7-1.7-1-2.6-1c-2.2,0-3.6,1.7-3.6,3.8c0,2.1,1.6,3.8,3.7,3.8c0.9,0,1.7-0.2,2.3-0.5v-2.6h-2.1v-1.2H21.7z"/>
	<path class="st0" d="M25.3,231.9h6.1v1.2h-4.8v2.8h4.5v1.2h-4.5v3h5.1v1.2h-6.3V231.9z"/>
	<path class="st0" d="M35.1,239.4c0.5,0.7,1.2,1,2,1c0.8,0,1.9-0.5,1.9-1.6c0-2.2-4.7-0.8-4.7-4.5c0-1.1,0.9-2.6,3.2-2.6
		c1,0,2,0.2,2.7,1.1l-1,0.9c-0.3-0.5-0.9-0.8-1.7-0.8c-1.4,0-1.8,0.9-1.8,1.4c0,2.4,4.7,1,4.7,4.4c0,1.8-1.5,2.9-3.3,2.9
		c-1.2,0-2.4-0.4-3-1.3L35.1,239.4z"/>
	<path class="st0" d="M45.6,233.1h-3v-1.2h7.4v1.2h-3v8.3h-1.3V233.1z"/>
	<path class="st0" d="M52.6,231.9h1.3v9.5h-1.3V231.9z"/>
	<path class="st0" d="M57,236.7c0-2.8,2-5,4.9-5s4.9,2.2,4.9,5s-2,5-4.9,5S57,239.5,57,236.7z M65.5,236.7c0-2.1-1.4-3.8-3.6-3.8
		s-3.6,1.7-3.6,3.8s1.4,3.8,3.6,3.8S65.5,238.7,65.5,236.7z"/>
	<path class="st0" d="M70.1,231.9h1.7l5.2,7.8h0v-7.8h1.3v9.5h-1.6l-5.3-7.8h0v7.8h-1.3V231.9z"/>
	<path class="st0" d="M86.9,231.9h3.3c4,0,5,3,5,4.7c0,2.4-1.8,4.7-5.2,4.7h-3.1V231.9z M88.2,240.2h1.6c2.2,0,4-1.2,4-3.5
		c0-1.2-0.6-3.5-3.7-3.5h-1.9V240.2z"/>
	<path class="st0" d="M98.9,235.2h-1.1l0.9-3.3h1.3L98.9,235.2z"/>
	<path class="st0" d="M103.4,231.9h6.1v1.2h-4.8v2.8h4.5v1.2h-4.5v3h5.1v1.2h-6.3V231.9z"/>
	<path class="st0" d="M112.9,231.9h1.7l5.2,7.8h0v-7.8h1.3v9.5h-1.6l-5.3-7.8h0v7.8h-1.3V231.9z"/>
	<path class="st0" d="M126.8,233.1h-3v-1.2h7.4v1.2h-3v8.3h-1.3V233.1z"/>
	<path class="st0" d="M133.8,231.9h3.3c2.4,0,3,1.5,3,2.6c0,1.2-0.9,2.3-2.3,2.5l2.7,4.3h-1.6l-2.4-4.2h-1.4v4.2h-1.3V231.9z
		 M135.1,236.1h1.7c1,0,2-0.2,2-1.5c0-1.3-1-1.5-2-1.5h-1.7V236.1z"/>
	<path class="st0" d="M143.3,231.9h6.1v1.2h-4.8v2.8h4.5v1.2h-4.5v3h5.1v1.2h-6.3V231.9z"/>
	<path class="st0" d="M152.8,231.9h3.3c2.4,0,3,1.5,3,2.6c0,1.2-0.6,2.6-3,2.6h-2v4.2h-1.3V231.9z M154.1,236.1h1.7c1,0,2-0.2,2-1.5
		c0-1.3-1-1.5-2-1.5h-1.7V236.1z"/>
	<path class="st0" d="M162.1,231.9h3.3c2.4,0,3,1.5,3,2.6c0,1.2-0.9,2.3-2.3,2.5l2.7,4.3h-1.6l-2.4-4.2h-1.4v4.2h-1.3V231.9z
		 M163.3,236.1h1.7c1,0,2-0.2,2-1.5c0-1.3-1-1.5-2-1.5h-1.7V236.1z"/>
	<path class="st0" d="M171.6,231.9h1.3v9.5h-1.3V231.9z"/>
	<path class="st0" d="M176.9,239.4c0.5,0.7,1.2,1,2,1c0.8,0,1.9-0.5,1.9-1.6c0-2.2-4.7-0.8-4.7-4.5c0-1.1,0.9-2.6,3.2-2.6
		c1,0,2,0.2,2.7,1.1l-1,0.9c-0.3-0.5-0.9-0.8-1.7-0.8c-1.4,0-1.8,0.9-1.8,1.4c0,2.4,4.7,1,4.7,4.4c0,1.8-1.5,2.9-3.3,2.9
		c-1.2,0-2.4-0.4-3-1.3L176.9,239.4z"/>
	<path class="st0" d="M185.4,231.9h6.1v1.2h-4.8v2.8h4.5v1.2h-4.5v3h5.1v1.2h-6.3V231.9z"/>
	<path class="st0" d="M195.1,239.4c0.5,0.7,1.2,1,2,1c0.8,0,1.9-0.5,1.9-1.6c0-2.2-4.7-0.8-4.7-4.5c0-1.1,0.9-2.6,3.2-2.6
		c1,0,2,0.2,2.7,1.1l-1,0.9c-0.3-0.5-0.9-0.8-1.7-0.8c-1.4,0-1.8,0.9-1.8,1.4c0,2.4,4.7,1,4.7,4.4c0,1.8-1.5,2.9-3.3,2.9
		c-1.2,0-2.4-0.4-3-1.3L195.1,239.4z"/>
</g>
</svg>
